<svg version="1.1" id="Layer_1" xmlns="http://www.w3.org/2000/svg" xmlns:xlink="http://www.w3.org/1999/xlink" x="0px" y="0px"
	 width="100%" viewBox="0 0 496 496" enable-background="new 0 0 496 496" xml:space="preserve">
<path fill="#000000" opacity="1.000000" stroke="none" 
	d="
M497.000000,249.000000 
	C497.000000,252.362106 497.000000,255.724197 496.695923,259.683289 
	C491.779572,264.361206 487.277374,268.576050 482.522980,272.484070 
	C478.081085,276.135254 475.878540,280.324860 474.939575,286.310486 
	C468.833984,325.230927 454.184937,360.794067 429.006927,391.196960 
	C370.165070,462.249603 294.562775,489.605408 204.175140,472.658844 
	C148.569916,462.233521 104.022758,432.131805 69.800262,387.171783 
	C46.024288,355.935944 31.635292,320.691925 26.400051,281.690430 
	C25.825693,277.411530 27.109425,272.282654 23.402893,268.858948 
	C16.073919,262.089172 8.482765,255.603256 1.000000,249.000000 
	C1.000000,247.933380 1.000000,246.866745 1.320162,245.290344 
	C9.193831,238.004410 16.756844,231.238770 24.292419,224.442703 
	C25.716221,223.158646 26.316900,221.416077 26.560038,219.556870 
	C29.895494,194.051300 37.617554,169.929810 49.437572,147.105972 
	C92.993469,63.001789 182.275635,14.770063 278.344757,25.878578 
	C317.110962,30.361130 352.643097,44.101955 384.052979,67.460678 
	C435.441071,105.676674 466.310059,156.334961 475.554688,219.976913 
	C476.209351,224.483704 474.926666,229.728333 479.407562,233.444946 
	C485.429504,238.439743 491.150085,243.797836 497.000000,249.000000 
M380.893951,343.481995 
	C363.266418,352.955902 345.069580,361.179016 326.314362,368.148865 
	C288.123413,382.341431 248.762482,390.607117 207.930023,391.343109 
	C195.434784,391.568298 182.971375,391.163116 170.577759,389.437653 
	C165.642822,388.750580 162.334961,390.008026 159.866669,395.044495 
	C153.567352,407.897980 146.716827,420.491272 139.759354,433.006653 
	C137.402283,437.246613 137.672531,439.489777 142.174133,442.007446 
	C193.822342,470.893158 248.745392,479.193024 305.619568,463.650024 
	C388.006561,441.134705 440.469910,387.090332 464.066498,305.083160 
	C465.757751,299.205444 467.607178,293.181458 467.428253,285.659363 
	C439.895203,307.879852 411.721497,327.028412 380.893951,343.481995 
M202.718613,36.407864 
	C187.593201,39.918003 172.880173,44.676830 158.889984,51.447235 
	C92.829422,83.416565 51.872452,135.385880 35.536278,206.818115 
	C34.995201,209.184052 33.407341,211.807968 35.028221,214.434143 
	C36.914230,214.691376 37.845219,213.309677 38.950138,212.413452 
	C48.399300,204.748978 58.118534,197.444168 68.102821,190.495911 
	C100.491920,167.955688 134.760406,148.924149 171.701599,134.833511 
	C203.880814,122.559265 236.931976,114.292847 271.359375,111.429840 
	C291.673737,109.740486 311.919525,109.764000 332.115540,111.968216 
	C337.134979,112.516045 339.373352,111.112114 341.470917,107.085663 
	C348.241364,94.089073 355.092712,81.128914 362.241608,68.338470 
	C364.548218,64.211678 364.089233,62.202225 359.836853,59.847431 
	C332.250458,44.571133 302.980347,35.007206 271.473022,32.198597 
	C248.585175,30.158337 225.977341,31.371326 202.718613,36.407864 
M322.638611,246.723663 
	C322.330322,244.258728 322.066162,241.787323 321.707062,239.329819 
	C316.949768,206.772934 285.719971,176.424561 244.242203,181.673584 
	C202.587891,186.944931 174.353989,228.380646 186.453400,269.837067 
	C195.535812,300.956329 226.354340,325.229126 264.370728,319.195312 
	C299.273468,313.655701 324.325165,281.766510 322.638611,246.723663 
M144.674179,410.336365 
	C150.171982,394.976929 155.767807,379.651337 161.095551,364.233154 
	C162.356415,360.584290 164.333817,359.220795 168.067398,359.613403 
	C172.695389,360.100067 177.348984,360.490173 181.998886,360.594818 
	C197.982788,360.954468 213.966278,361.155121 229.918503,359.630035 
	C242.146088,358.461029 254.192612,356.250214 266.202271,353.696899 
	C224.076111,356.363251 183.000824,351.530029 143.037033,337.585724 
	C103.122833,323.658722 67.063118,302.770264 33.043407,276.698700 
	C33.232014,280.132690 33.135212,282.482574 33.519238,284.751068 
	C40.278648,324.679077 56.207237,360.448730 82.156364,391.653137 
	C95.673241,407.907501 111.276123,421.847900 128.799759,433.647430 
	C133.984039,437.138245 134.730331,436.875000 136.874649,431.183441 
	C139.398941,424.483215 141.922089,417.782562 144.674179,410.336365 
M454.881439,168.531998 
	C436.709656,124.842819 407.889648,90.198135 367.867188,64.816338 
	C365.644287,67.218033 365.247894,69.577866 364.466858,71.721840 
	C356.432861,93.775635 348.336670,115.808372 340.570007,137.956451 
	C339.252106,141.714737 337.508026,142.913345 333.772003,142.436035 
	C329.489197,141.888901 325.160858,141.515305 320.845551,141.437012 
	C301.536591,141.086639 282.221008,140.799942 263.012604,143.404755 
	C258.897766,143.962753 254.799896,144.659210 250.708710,145.374802 
	C246.813568,146.056076 242.937378,146.845718 239.052856,147.587723 
	C280.726318,145.203125 321.097198,150.630493 360.365753,164.463943 
	C399.447388,178.231537 434.863831,198.706543 468.254059,223.403137 
	C467.164185,204.324097 461.916931,186.599304 454.881439,168.531998 
M179.539398,178.046188 
	C187.882599,169.434235 197.890137,163.035690 209.326721,156.670349 
	C207.460022,156.587082 206.957230,156.463974 206.504623,156.565247 
	C205.535522,156.782104 204.577057,157.072113 203.640762,157.406403 
	C157.472992,173.890076 118.188660,200.328827 86.866570,238.248459 
	C80.274384,246.229187 80.208527,246.355804 85.774841,255.020355 
	C109.224922,291.523010 142.590973,315.646637 182.203476,331.880524 
	C184.808670,332.948181 187.374634,334.628387 192.108124,334.066650 
	C175.245483,321.184387 163.646912,305.831573 156.627701,287.259918 
	C149.525131,268.467621 148.027283,249.114319 152.016846,229.416168 
	C155.987564,209.811172 165.141357,192.904358 179.539398,178.046188 
M353.332764,274.493835 
	C345.151093,307.814331 325.032990,331.252686 294.286316,345.990875 
	C301.769104,343.233398 309.293823,340.576324 316.568451,337.354523 
	C356.046173,319.870850 389.934937,295.016876 417.052032,261.152771 
	C420.350189,257.034027 420.337646,253.962677 417.735809,249.658661 
	C402.870483,225.068161 382.624756,205.870499 358.768372,190.270905 
	C345.049927,181.300446 330.502502,173.932922 313.787170,167.783234 
	C346.515442,191.221832 362.476471,234.792831 353.332764,274.493835 
z"/>
<path fill="#000000" opacity="1.000000" stroke="none" 
	d="
M262.506897,226.155807 
	C273.372528,232.227692 279.080170,242.342987 277.795593,252.895126 
	C276.373047,264.580414 270.303650,272.679047 258.977234,276.273346 
	C247.861526,279.800751 235.842712,275.687653 229.239807,266.497345 
	C222.439621,257.032440 222.399536,244.183212 229.140656,234.708176 
	C235.766785,225.394745 248.013275,221.441422 259.343658,224.970459 
	C260.295471,225.266937 261.221954,225.644897 262.506897,226.155807 
z"/>
</svg>